HIERARCHY
ROOT joint_Root
{
	OFFSET 0.0 0.0 0.0
	CHANNELS 6 Xposition Yposition Zposition Zrotation Xrotation Yrotation 
	JOINT Hips
	{
		OFFSET -0.726466 93.3139 -2.00062
		CHANNELS 6 Xposition Yposition Zposition Zrotation Xrotation Yrotation 
		JOINT Spine
		{
			OFFSET 15.7357 0.0 0.0
			CHANNELS 6 Xposition Yposition Zposition Zrotation Xrotation Yrotation 
			JOINT Chest
			{
				OFFSET 8.98455 -0.406207 0.0
				CHANNELS 6 Xposition Yposition Zposition Zrotation Xrotation Yrotation 
				JOINT Neck
				{
					OFFSET 16.3773 0.0 0.0
					CHANNELS 6 Xposition Yposition Zposition Zrotation Xrotation Yrotation 
					JOINT Head
					{
						OFFSET 6.45672 0.0 0.0
						CHANNELS 6 Xposition Yposition Zposition Zrotation Xrotation Yrotation 
						End Site
						{
							OFFSET 0.0 0.0 0.0
						}
					}
				}
				JOINT Shoulder_L
				{
					OFFSET 12.9942 -0.242716 4.98039
					CHANNELS 6 Xposition Yposition Zposition Zrotation Xrotation Yrotation 
					JOINT UpperArm_L
					{
						OFFSET 5.34809 0.0 0.0
						CHANNELS 6 Xposition Yposition Zposition Zrotation Xrotation Yrotation 
						JOINT LowerArm_L
						{
							OFFSET 24.3286 1.87007e-05 0.0
							CHANNELS 6 Xposition Yposition Zposition Zrotation Xrotation Yrotation 
							JOINT Hand_L
							{
								OFFSET 22.2916 0.0 0.0
								CHANNELS 6 Xposition Yposition Zposition Zrotation Xrotation Yrotation 
								End Site
								{
									OFFSET 0.0 0.0 0.0
								}
							}
						}
					}
				}
				JOINT Shoulder_R
				{
					OFFSET 12.9945 -0.242716 -4.98039
					CHANNELS 6 Xposition Yposition Zposition Zrotation Xrotation Yrotation 
					JOINT UpperArm_R
					{
						OFFSET -5.34813 0.0 0.0
						CHANNELS 6 Xposition Yposition Zposition Zrotation Xrotation Yrotation 
						JOINT LowerArm_R
						{
							OFFSET -24.3289 0.000322201 0.0
							CHANNELS 6 Xposition Yposition Zposition Zrotation Xrotation Yrotation 
							JOINT Hand_R
							{
								OFFSET -22.2915 -0.000108084 0.0
								CHANNELS 6 Xposition Yposition Zposition Zrotation Xrotation Yrotation 
								End Site
								{
									OFFSET 0.0 0.0 0.0
								}
							}
						}
					}
				}
			}
		}
		JOINT UpperLeg_L
		{
			OFFSET -2.19248 -6.46944 0.0
			CHANNELS 6 Xposition Yposition Zposition Zrotation Xrotation Yrotation 
			JOINT LowerLeg_L
			{
				OFFSET 39.0811 0.0 -1.23785e-05
				CHANNELS 6 Xposition Yposition Zposition Zrotation Xrotation Yrotation 
				JOINT Foot_L
				{
					OFFSET 40.9854 0.0 -1.26872e-05
					CHANNELS 6 Xposition Yposition Zposition Zrotation Xrotation Yrotation 
					JOINT Toes_L
					{
						OFFSET 11.7543 0.0 0.0
						CHANNELS 6 Xposition Yposition Zposition Zrotation Xrotation Yrotation 
						End Site
						{
							OFFSET 0.0 0.0 0.0
						}
					}
				}
			}
		}
		JOINT UpperLeg_R
		{
			OFFSET -2.19251 6.46944 0.0
			CHANNELS 6 Xposition Yposition Zposition Zrotation Xrotation Yrotation 
			JOINT LowerLeg_R
			{
				OFFSET -39.0811 -0.00228153 -0.0401928
				CHANNELS 6 Xposition Yposition Zposition Zrotation Xrotation Yrotation 
				JOINT Foot_R
				{
					OFFSET -40.9854 0.0 0.0
					CHANNELS 6 Xposition Yposition Zposition Zrotation Xrotation Yrotation 
					JOINT Toes_R
					{
						OFFSET -11.7543 0.0 0.0
						CHANNELS 6 Xposition Yposition Zposition Zrotation Xrotation Yrotation 
						End Site
						{
							OFFSET 0.0 0.0 0.0
						}
					}
				}
			}
		}
	}
}
MOTION
Frames:	8
Frame Time:	0.0333333
0.000000 0.000000 0.000000 0.000000 0.000000 -0.000000 -2.168960 93.258100 -0.861383 88.726000 -3.099370 -1.340860 15.735700 0.000005 -0.000001 110.017000 87.606200 -111.118000 8.984550 -0.406207 -0.000000 -3.250690 1.743810 -2.152670 16.377300 -0.000001 -0.000001 0.495871 -3.795990 6.152750 6.456720 -0.000001 -0.000000 2.915270 -1.428720 -5.810000 12.994200 -0.242716 4.980390 -89.550300 -1.401760 -72.212600 5.348090 -0.000007 -0.000001 -71.905100 30.039100 -9.689210 24.328600 0.000019 0.000005 4.596940 12.709400 -20.075500 22.291600 -0.000001 0.000005 5.112720 5.465110 -5.188450 12.994500 -0.242716 -4.980390 92.894000 -7.004400 -67.483300 -5.348130 -0.000001 -0.000004 -85.960000 -52.669900 -127.154000 -24.328900 0.000322 -0.000009 0.188772 0.624783 -16.918700 -22.291500 -0.000108 -0.000004 34.554300 4.786320 11.573400 -2.192480 -6.469440 -0.000000 -175.999000 -9.940020 -3.875800 39.081100 -0.000007 -0.000012 -0.051835 0.209817 13.876800 40.985400 -0.000006 -0.000013 -1.358040 3.711980 -61.265200 11.754300 -0.000000 0.000003 -0.000006 -0.000083 -16.580800 -2.192510 6.469440 -0.000001 -178.523000 11.881600 178.524000 -39.081100 -0.002282 -0.040193 0.005047 -0.008960 10.804600 -40.985400 0.000008 0.000006 5.621210 6.948270 -61.728700 -11.754300 -0.000006 -0.000006 -0.006534 -0.075612 -19.650800
0.000000 0.000000 0.000000 0.000000 0.000000 -0.000000 -2.135090 93.264400 -0.868276 88.757400 -3.205090 -1.357620 15.735700 0.000005 -0.000001 109.539000 87.615400 -110.528000 8.984550 -0.406207 -0.000000 -3.256900 1.689350 -1.929760 16.377300 -0.000001 -0.000001 0.589728 -3.886140 6.199370 6.456720 -0.000001 -0.000000 2.959740 -1.539810 -5.747720 12.994200 -0.242716 4.980390 -89.568100 -1.344060 -72.182200 5.348090 -0.000007 -0.000001 -71.498200 29.768600 -9.857210 24.328600 0.000019 0.000005 4.607870 12.848300 -19.922500 22.291600 -0.000001 0.000005 5.364630 5.466050 -5.223740 12.994500 -0.242716 -4.980390 92.939500 -7.077320 -67.375600 -5.348130 -0.000001 -0.000004 -83.073300 -53.094600 -126.178000 -24.328900 0.000322 -0.000009 0.215513 0.579758 -20.469900 -22.291500 -0.000108 -0.000004 33.988900 4.829150 10.761300 -2.192480 -6.469440 -0.000000 -176.061000 -9.984860 -3.823610 39.081100 -0.000007 -0.000012 -0.051299 0.209395 13.765500 40.985400 -0.000006 -0.000013 -1.346740 3.647800 -61.223200 11.754300 -0.000000 0.000003 -0.000005 -0.000074 -16.580400 -2.192510 6.469440 -0.000001 -178.575000 11.721400 178.505000 -39.081100 -0.002282 -0.040193 0.004890 -0.008150 10.786900 -40.985400 0.000008 0.000006 5.567210 6.914460 -61.696500 -11.754300 -0.000006 -0.000006 -0.006593 -0.076134 -19.672100
0.000000 0.000000 0.000000 0.000000 0.000000 -0.000000 -2.126380 93.263000 -0.864864 88.759900 -3.280140 -1.340590 15.735700 0.000005 -0.000001 109.490000 87.603400 -110.355000 8.984550 -0.406207 -0.000000 -3.234780 1.681540 -1.683620 16.377300 -0.000001 -0.000001 0.662447 -4.051360 6.309130 6.456720 -0.000001 -0.000000 3.027810 -1.770560 -5.609690 12.994200 -0.242716 4.980390 -89.602000 -1.236690 -72.158200 5.348090 -0.000007 -0.000001 -71.134500 29.397800 -10.039500 24.328600 0.000019 0.000005 4.620280 12.907400 -19.889300 22.291600 -0.000001 0.000005 5.360210 5.465470 -5.201480 12.994500 -0.242716 -4.980390 92.983200 -7.133610 -67.234300 -5.348130 -0.000001 -0.000004 -79.806400 -53.612700 -125.190000 -24.328900 0.000322 -0.000009 0.459248 0.989275 -24.925700 -22.291500 -0.000108 -0.000004 32.935000 4.883470 9.701680 -2.192480 -6.469440 -0.000000 -176.072000 -10.066600 -3.796800 39.081100 -0.000007 -0.000012 -0.050945 0.207807 13.774500 40.985400 -0.000006 -0.000013 -1.336800 3.640890 -61.238000 11.754300 -0.000000 0.000003 -0.000005 -0.000066 -16.580100 -2.192510 6.469440 -0.000001 -178.583000 11.540300 178.497000 -39.081100 -0.002282 -0.040193 0.004932 -0.008346 10.819400 -40.985400 0.000008 0.000006 5.509730 6.792260 -61.684000 -11.754300 -0.000006 -0.000006 -0.006318 -0.073697 -19.572700
0.000000 0.000000 0.000000 0.000000 0.000000 -0.000000 -2.126170 93.264600 -0.877113 88.776000 -3.325130 -1.304640 15.735700 0.000005 -0.000001 109.288000 87.587600 -110.041000 8.984550 -0.406207 -0.000000 -3.201210 1.665070 -1.460300 16.377300 -0.000001 -0.000001 0.764110 -4.249390 6.437930 6.456720 -0.000001 -0.000000 3.076380 -2.030860 -5.415260 12.994200 -0.242716 4.980390 -89.655700 -1.067110 -72.117400 5.348090 -0.000007 -0.000001 -70.780400 29.125900 -10.168500 24.328600 0.000019 0.000005 4.632380 12.833100 -20.041900 22.291600 -0.000001 0.000005 5.414910 5.462670 -5.096650 12.994500 -0.242716 -4.980390 92.975400 -7.068640 -67.101400 -5.348130 -0.000001 -0.000004 -75.971300 -54.176600 -123.982000 -24.328900 0.000322 -0.000009 1.249120 2.154080 -30.114400 -22.291500 -0.000108 -0.000004 32.160800 4.958110 8.195550 -2.192480 -6.469440 -0.000000 -176.084000 -10.049000 -3.746620 39.081100 -0.000007 -0.000012 -0.050716 0.207412 13.740200 40.985400 -0.000006 -0.000013 -1.346450 3.582720 -61.217000 11.754300 -0.000000 0.000003 -0.000005 -0.000075 -16.580500 -2.192510 6.469440 -0.000001 -178.601000 11.429000 178.509000 -39.081100 -0.002282 -0.040193 0.004682 -0.007017 10.845400 -40.985400 0.000008 0.000006 5.512350 6.740470 -61.682600 -11.754300 -0.000006 -0.000006 -0.006610 -0.076279 -19.678000
0.000000 0.000000 0.000000 0.000000 0.000000 -0.000000 -2.151750 93.246000 -0.884017 88.783500 -3.351890 -1.238510 15.735700 0.000005 -0.000001 109.199000 87.560900 -109.850000 8.984550 -0.406207 -0.000000 -3.149910 1.665480 -1.256640 16.377300 -0.000001 -0.000001 0.827014 -4.514740 6.562990 6.456720 -0.000001 -0.000000 3.182360 -2.305930 -5.197390 12.994200 -0.242716 4.980390 -89.714500 -0.883929 -72.100000 5.348090 -0.000007 -0.000001 -70.469300 28.943800 -10.303300 24.328600 0.000019 0.000005 4.696710 12.887200 -20.221800 22.291600 -0.000001 0.000005 5.540350 5.465700 -5.210300 12.994500 -0.242716 -4.980390 92.944100 -6.936620 -66.933700 -5.348130 -0.000001 -0.000004 -71.759600 -54.688900 -122.480000 -24.328900 0.000322 -0.000009 2.347580 3.225790 -36.073200 -22.291500 -0.000108 -0.000004 31.980600 5.056980 6.081710 -2.192480 -6.469440 -0.000000 -176.063000 -10.092600 -3.783310 39.081100 -0.000007 -0.000012 -0.052248 0.210435 13.943600 40.985400 -0.000006 -0.000013 -1.355530 3.594080 -61.311600 11.754300 -0.000000 0.000003 -0.000006 -0.000086 -16.580900 -2.192510 6.469440 -0.000001 -178.633000 11.338900 178.461000 -39.081100 -0.002282 -0.040193 0.002378 0.004900 11.074700 -40.985400 0.000008 0.000006 5.340320 6.716000 -61.765800 -11.754300 -0.000006 -0.000006 -0.006545 -0.075706 -19.654700
0.000000 0.000000 0.000000 0.000000 0.000000 -0.000000 -2.179600 93.244200 -0.900782 88.805400 -3.399710 -1.204370 15.735700 0.000005 -0.000001 109.200000 87.542000 -109.772000 8.984550 -0.406207 -0.000000 -3.115500 1.670320 -1.099990 16.377300 -0.000001 -0.000001 0.900316 -4.742850 6.724750 6.456720 -0.000001 -0.000000 3.274930 -2.554710 -5.056180 12.994200 -0.242716 4.980390 -89.763300 -0.733721 -72.118000 5.348090 -0.000007 -0.000001 -70.297400 28.907700 -10.360300 24.328600 0.000019 0.000005 4.697480 12.732000 -20.447300 22.291600 -0.000001 0.000005 5.550900 5.466150 -5.227140 12.994500 -0.242716 -4.980390 92.908000 -6.826210 -66.858700 -5.348130 -0.000001 -0.000004 -67.216300 -55.339300 -120.405000 -24.328900 0.000322 -0.000009 3.453840 3.718560 -42.941900 -22.291500 -0.000108 -0.000004 31.772800 5.171380 3.420320 -2.192480 -6.469440 -0.000000 -176.061000 -10.187800 -3.750890 39.081100 -0.000007 -0.000012 -0.051784 0.208674 13.936700 40.985400 -0.000006 -0.000013 -1.370680 3.618280 -61.295400 11.754300 -0.000000 0.000003 -0.000004 -0.000052 -16.579600 -2.192510 6.469440 -0.000001 -178.648000 11.242200 178.443000 -39.081100 -0.002282 -0.040193 0.001266 0.010519 11.139300 -40.985400 0.000008 0.000006 5.276870 6.710320 -61.768700 -11.754300 -0.000006 -0.000006 -0.006453 -0.074893 -19.621500
0.000000 0.000000 0.000000 0.000000 0.000000 -0.000000 -2.219860 93.238900 -0.925225 88.795700 -3.445140 -1.179420 15.735700 0.000005 -0.000001 109.613000 87.531400 -110.116000 8.984550 -0.406207 -0.000000 -3.108190 1.704260 -0.959870 16.377300 -0.000001 -0.000001 1.003490 -4.928660 6.787500 6.456720 -0.000001 -0.000000 3.395540 -2.804620 -4.887160 12.994200 -0.242716 4.980390 -89.792300 -0.641029 -72.049400 5.348090 -0.000007 -0.000001 -70.210400 29.205900 -10.495300 24.328600 0.000019 0.000005 4.675440 12.585000 -20.573200 22.291600 -0.000001 0.000005 5.483000 5.465850 -5.215820 12.994500 -0.242716 -4.980390 92.837000 -6.655870 -66.850600 -5.348130 -0.000001 -0.000004 -62.264300 -56.226100 -117.843000 -24.328900 0.000322 -0.000009 5.142290 4.277150 -50.335500 -22.291500 -0.000108 -0.000004 31.259000 5.284950 0.481320 -2.192480 -6.469440 -0.000000 -176.018000 -10.224300 -3.759320 39.081100 -0.000007 -0.000012 -0.052168 0.209234 13.999900 40.985400 -0.000006 -0.000013 -1.393420 3.643640 -61.316900 11.754300 -0.000000 0.000003 -0.000004 -0.000054 -16.579600 -2.192510 6.469440 -0.000001 -178.615000 11.232500 178.426000 -39.081100 -0.002282 -0.040193 0.001312 0.010227 11.200100 -40.985400 0.000008 0.000006 5.268810 6.717400 -61.785900 -11.754300 -0.000006 -0.000006 -0.006694 -0.077012 -19.708000
0.000000 0.000000 0.000000 0.000000 0.000000 -0.000000 -2.252060 93.228400 -0.942822 88.807800 -3.501690 -1.161140 15.735700 0.000005 -0.000001 110.208000 87.526500 -110.647000 8.984550 -0.406207 -0.000000 -3.117420 1.749750 -0.831523 16.377300 -0.000001 -0.000001 1.035230 -5.081240 6.854780 6.456720 -0.000001 -0.000000 3.575650 -2.970260 -5.031120 12.994200 -0.242716 4.980390 -89.819600 -0.555332 -71.998800 5.348090 -0.000007 -0.000001 -70.353100 29.363400 -10.502900 24.328600 0.000019 0.000005 4.686860 12.553900 -20.665400 22.291600 -0.000001 0.000005 5.361010 5.470940 -5.405650 12.994500 -0.242716 -4.980390 92.755000 -6.469530 -66.873700 -5.348130 -0.000001 -0.000004 -57.780300 -56.972200 -115.779000 -24.328900 0.000322 -0.000009 7.822730 5.108900 -57.043100 -22.291500 -0.000108 -0.000004 30.833100 5.428640 -3.904340 -2.192480 -6.469440 -0.000000 -176.002000 -10.293900 -3.796360 39.081100 -0.000007 -0.000012 -0.053487 0.212928 14.100800 40.985400 -0.000006 -0.000013 -1.415390 3.646050 -61.353800 11.754300 -0.000000 0.000003 -0.000005 -0.000073 -16.580400 -2.192510 6.469440 -0.000001 -178.642000 11.223100 178.361000 -39.081100 -0.002282 -0.040193 -0.001581 0.024555 11.324700 -40.985400 0.000008 0.000006 5.044330 6.810890 -61.797300 -11.754300 -0.000006 -0.000006 -0.006162 -0.072299 -19.515700
